<?xml version="1.0" encoding="utf-8"?>
<!-- Generator: $$$/GeneralStr/196=Adobe Illustrator 27.6.0, SVG Export Plug-In . SVG Version: 6.00 Build 0)  -->
<svg version="1.1" id="圖層_1" xmlns="http://www.w3.org/2000/svg" xmlns:xlink="http://www.w3.org/1999/xlink" x="0px" y="0px"
	 viewBox="0 0 40 40" style="enable-background:new 0 0 40 40;" xml:space="preserve">
<style type="text/css">
	.st0{fill:#00C500;}
	.st1{fill:#FFFFFF;}
</style>
<path class="st0" d="M37.79,0H2.21C0.99,0,0,0.99,0,2.21v35.59C0,39.01,0.99,40,2.21,40h35.58c1.22,0,2.21-0.99,2.21-2.21
	c0,0,0,0,0,0V2.21C40,0.99,39.01,0,37.79,0z"/>
<g>
	<g>
		<path class="st1" d="M34.52,19.27c0.07-0.35,0.1-0.65,0.12-0.89c0.03-0.39,0-0.96-0.01-1.14C34.26,11.07,27.85,6.15,20,6.15
			c-8.09,0-14.64,5.21-14.64,11.64c0,5.91,5.54,10.79,12.71,11.54c0.44,0.05,0.75,0.44,0.71,0.88l-0.31,2.75
			c-0.07,0.62,0.58,1.08,1.14,0.81c6.06-2.93,9.69-5.93,11.85-8.54c0.39-0.47,1.68-2.27,1.94-2.75
			C33.95,21.48,34.34,20.4,34.52,19.27z"/>
		<path class="st0" d="M11.95,20.15v-4.9c0-0.41-0.34-0.75-0.75-0.75l0,0c-0.41,0-0.75,0.34-0.75,0.75v5.65
			c0,0.41,0.34,0.75,0.75,0.75h3c0.41,0,0.75-0.34,0.75-0.75l0,0c0-0.41-0.34-0.75-0.75-0.75H11.95z"/>
		<path class="st0" d="M16.57,21.65h-0.33c-0.32,0-0.59-0.26-0.59-0.59v-5.98c0-0.32,0.26-0.59,0.59-0.59h0.33
			c0.32,0,0.59,0.26,0.59,0.59v5.98C17.15,21.39,16.89,21.65,16.57,21.65z"/>
		<path class="st0" d="M22.62,15.25v3.45c0,0-2.99-3.9-3.04-3.95c-0.14-0.16-0.35-0.26-0.59-0.25c-0.41,0.02-0.72,0.37-0.72,0.78
			v5.62c0,0.41,0.34,0.75,0.75,0.75l0,0c0.41,0,0.75-0.34,0.75-0.75v-3.43c0,0,3.04,3.93,3.08,3.98c0.13,0.13,0.31,0.2,0.51,0.2
			c0.42,0,0.76-0.36,0.76-0.78v-5.62c0-0.41-0.34-0.75-0.75-0.75l0,0C22.95,14.5,22.62,14.83,22.62,15.25z"/>
		<path class="st0" d="M29.73,15.25L29.73,15.25c0-0.41-0.34-0.75-0.75-0.75h-3c-0.41,0-0.75,0.34-0.75,0.75v5.65
			c0,0.41,0.34,0.75,0.75,0.75h3c0.41,0,0.75-0.34,0.75-0.75l0,0c0-0.41-0.34-0.75-0.75-0.75h-2.25v-1.33h2.25
			c0.41,0,0.75-0.34,0.75-0.75l0,0c0-0.41-0.34-0.75-0.75-0.75h-2.25V16h2.25C29.4,16,29.73,15.66,29.73,15.25z"/>
	</g>
</g>
</svg>
