<?xml version="1.0" encoding="utf-8"?>
<!-- Generator: $$$/GeneralStr/196=Adobe Illustrator 27.6.0, SVG Export Plug-In . SVG Version: 6.00 Build 0)  -->
<svg version="1.1" id="圖層_1" xmlns="http://www.w3.org/2000/svg" xmlns:xlink="http://www.w3.org/1999/xlink" x="0px" y="0px"
	 viewBox="0 0 166 38" style="enable-background:new 0 0 166 38;" xml:space="preserve">
<style type="text/css">
	.st0{fill:url(#SVGID_1_);}
	.st1{fill:#FFFFFF;}
</style>
<g>
	<linearGradient id="SVGID_1_" gradientUnits="userSpaceOnUse" x1="18.5428" y1="-18.2144" x2="147.4572" y2="56.2144">
		<stop  offset="0" style="stop-color:#009484"/>
		<stop  offset="0.146" style="stop-color:#008B7F"/>
		<stop  offset="0.384" style="stop-color:#007371"/>
		<stop  offset="0.6846" style="stop-color:#004B5B"/>
		<stop  offset="1" style="stop-color:#001A3F"/>
	</linearGradient>
	<path class="st0" d="M147,38H19C8.5,38,0,29.5,0,19v0C0,8.5,8.5,0,19,0h128c10.5,0,19,8.5,19,19v0C166,29.5,157.5,38,147,38z"/>
	<g>
		<g>
			<g>
				<path class="st1" d="M41.3,25.5c0.3,0,0.3-0.2,0.4-2.2c0.2,0.2,0.6,0.3,0.9,0.4c-0.1,2.3-0.3,2.8-1.2,2.8h-0.9
					c-0.9,0-1.1-0.3-1.1-1.4v-3.7h-1c-0.2,2.4-0.9,4.3-2.9,5.4c-0.1-0.3-0.5-0.7-0.7-0.9h-4.9v0.9h-0.9v-5.6
					c-0.3,0.4-0.6,0.8-0.9,1.1c-0.1-0.2-0.4-0.6-0.6-0.8c0.9-0.9,1.7-2.2,2.2-3.5l0.9,0.3c-0.1,0.3-0.3,0.7-0.4,1h2
					c-0.1-0.3-0.3-0.6-0.5-0.9l0.8-0.3c0.3,0.4,0.5,0.8,0.7,1.2h2.2v0.9h-2.3v1h2v0.8h-2v1H35v0.9h-2.1V25h2.3v0.6
					c1.5-0.9,2-2.4,2.1-4.2h-1.5v-9.1H42v9.1h-1.6v3.7c0,0.3,0,0.4,0.3,0.4H41.3z M29.9,13.6h-2.4v-0.9h2.4v-1h1v3h-1V13.6z
					 M28.2,14.9h3v2.9h-3V14.9z M29,17.1h1.4v-1.4H29V17.1z M31.9,20.1h-2.1v1h2.1V20.1z M31.9,21.9h-2.1v1h2.1V21.9z M29.9,25h2.1
					v-1.2h-2.1V25z M35.1,17.8h-3v-2.9h3V17.8z M33.4,14.6h-1v-3h1v1h2.2v0.9h-2.2V14.6z M34.3,15.7h-1.4v1.4h1.4V15.7z M37,15h3.9
					v-1.6H37V15z M37,17.6h3.9V16H37V17.6z M37,20.3h3.9v-1.6H37V20.3z"/>
				<path class="st1" d="M50.5,17.8c-0.2,0.4-0.4,0.8-0.7,1.1h8.2v7.8h-1.2v-0.6h-7.2v0.6h-1.2v-6.1c-0.8,0.9-1.8,1.7-2.9,2.4
					c-0.2-0.3-0.5-0.7-0.8-0.9c1.8-1.1,3.3-2.6,4.3-4.3h-3.9v-1h4.5c0.2-0.4,0.4-0.8,0.5-1.2h-3.8v-1h4.2c0.1-0.4,0.2-0.8,0.3-1.2
					c-1.5,0.1-3.1,0.1-4.5,0.1c0-0.3-0.1-0.7-0.2-0.9c4,0,9-0.3,11.6-0.8l0.8,0.9c-1.6,0.3-3.9,0.6-6.3,0.7
					c-0.1,0.4-0.2,0.8-0.4,1.2h6.8v1h-7.1c-0.2,0.4-0.3,0.8-0.5,1.2h8.6v1H50.5z M56.9,19.9h-7.2V21h7.2V19.9z M56.9,21.9h-7.2V23
					h7.2V21.9z M56.9,25.1v-1.2h-7.2v1.2H56.9z"/>
				<path class="st1" d="M75.3,25.3c0.6,0,0.7-0.3,0.8-2.2c0.3,0.2,0.8,0.4,1.1,0.5c-0.1,2.3-0.5,2.8-1.8,2.8h-2.5
					c-1.5,0-1.9-0.4-1.9-1.7v-4.1h-2.9c-0.2,3.4-1.1,5.2-5.2,6.1c-0.1-0.3-0.4-0.8-0.6-1c3.7-0.7,4.4-2.1,4.6-5h-4.4v-1.2H77v1.2
					h-4.8v4.1c0,0.5,0.1,0.6,0.8,0.6H75.3z M64.1,17.2h-1.2v-3.6h6.4c-0.2-0.5-0.5-1.2-0.8-1.7l1.2-0.3c0.4,0.6,0.8,1.4,1,2h5.8v3.6
					h-1.3v-2.4H64.1V17.2z M65.3,17.6v-1.1h8.9v1.1H65.3z"/>
				<path class="st1" d="M83.1,18.2c-0.8,0.9-1.9,1.7-2.8,2.1c-0.2-0.2-0.5-0.6-0.7-0.8c1.1-0.4,2.4-1.3,3.2-2.2h-2.4v-2.8h2.8v-0.8
					h-3.3v-0.9h3.3v-1h1.1v1h3.1v0.9h-3.1v0.8h2.7v2.8h-2.7v0.6l0.5-0.6c0.8,0.4,1.7,1,2.2,1.4l-0.5,0.7c-0.5-0.4-1.4-1-2.2-1.4v2.1
					h-1.1V18.2z M87.7,25.2h6.9v1.1H79.7v-1.1h2.7v-2.7h1.2v2.7h2.9v-3.6h-5.7v-1h12.7v1h-5.8v1.3h4.7v1h-4.7V25.2z M81.3,16.5h1.8
					v-1.2h-1.8V16.5z M84.2,15.3v1.2h1.6v-1.2H84.2z M93.5,14.5c-0.4,1.3-1,2.4-1.7,3.3c0.8,0.7,1.8,1.3,3,1.7
					c-0.2,0.2-0.6,0.7-0.7,0.9c-1.2-0.4-2.2-1.1-3-1.9c-0.9,0.8-2,1.4-3.2,1.8c-0.1-0.2-0.5-0.7-0.7-0.9c1.3-0.4,2.3-1,3.2-1.7
					c-0.6-0.7-1.1-1.5-1.4-2.2c-0.3,0.4-0.6,0.8-1,1.1c-0.2-0.2-0.6-0.6-0.8-0.8c1.1-1,1.9-2.5,2.3-4.2l1.1,0.2
					c-0.2,0.5-0.3,1.1-0.6,1.6h4.6v1H93.5z M91,17c0.6-0.7,1-1.5,1.3-2.5l-2.9,0C89.8,15.4,90.3,16.2,91,17z"/>
				<path class="st1" d="M109.3,15.8c-0.9,2.6-2.2,4.7-3.9,6.4c1.8,1.5,4,2.7,6.7,3.3c-0.3,0.3-0.6,0.8-0.8,1.1
					c-2.7-0.8-4.9-2-6.8-3.6c-1.8,1.6-4.1,2.8-6.9,3.7c-0.1-0.3-0.5-0.9-0.8-1.1c2.7-0.8,4.9-1.9,6.7-3.4c-1.7-1.7-3-3.9-4-6.4h-2.5
					v-1.2h14.8v1.2H109.3z M100.9,15.8c0.9,2.1,2,4,3.6,5.5c1.5-1.5,2.6-3.3,3.4-5.5H100.9z M104.4,14.5c-0.2-0.7-0.7-1.8-1.2-2.6
					l1.3-0.4c0.5,0.8,1.1,1.8,1.3,2.5L104.4,14.5z"/>
				<path class="st1" d="M122.3,23.7h6.8v1h-6.8v2h-1.3v-2h-6.8v-1h6.8v-1.1h-4.8v-5h11v5h-4.9V23.7z M129.1,15.7v1h-14.8v-1h4.2
					c-0.2-0.4-0.4-0.9-0.7-1.4l1.2-0.3c0.3,0.5,0.7,1.1,0.9,1.6h3.6c0.3-0.5,0.6-1.2,0.8-1.7l1.3,0.3c-0.2,0.5-0.5,1-0.8,1.4H129.1z
					 M128.1,14h-12.7v-1h5.9c-0.2-0.4-0.4-0.9-0.7-1.3l1.2-0.3c0.3,0.5,0.6,1.1,0.8,1.6h5.4V14z M117.5,19.6h8.6v-1.2h-8.6V19.6z
					 M117.5,21.7h8.6v-1.2h-8.6V21.7z"/>
			</g>
		</g>
		<g>
			<path class="st1" d="M140.6,25.6c-0.2,0-0.4-0.1-0.6-0.2c-0.3-0.3-0.3-0.8,0-1.1l5.3-5.3l-5.3-5.3c-0.3-0.3-0.3-0.8,0-1.1
				c0.3-0.3,0.8-0.3,1.1,0l5.8,5.8c0.1,0.1,0.2,0.3,0.2,0.6c0,0.2-0.1,0.4-0.2,0.6l-5.8,5.8C141,25.6,140.8,25.6,140.6,25.6z"/>
		</g>
	</g>
</g>
</svg>
