<?xml version="1.0" encoding="utf-8"?>
<!-- Generator: $$$/GeneralStr/196=Adobe Illustrator 27.6.0, SVG Export Plug-In . SVG Version: 6.00 Build 0)  -->
<svg version="1.1" id="圖層_1" xmlns="http://www.w3.org/2000/svg" xmlns:xlink="http://www.w3.org/1999/xlink" x="0px" y="0px"
	 viewBox="0 0 40 40" style="enable-background:new 0 0 40 40;" xml:space="preserve">
<style type="text/css">
	.st0{fill:#4267B2;}
	.st1{fill:#FFFFFF;}
</style>
<path class="st0" d="M37.79,0H2.21C0.99,0,0,0.99,0,2.21v35.59C0,39.01,0.99,40,2.21,40h35.58c1.22,0,2.21-0.99,2.21-2.21
	c0,0,0,0,0,0V2.21C40,0.99,39.01,0,37.79,0z"/>
<path class="st1" d="M27.62,40V24.53h5.21l0.78-6.05h-6v-3.86c0-1.75,0.49-2.94,2.99-2.94h3.18v-5.4c-0.55-0.07-2.45-0.24-4.66-0.24
	c-4.61,0-7.76,2.81-7.76,7.98v4.46h-5.2v6.05h5.2V40H27.62z"/>
</svg>
